<mxfile host="app.diagrams.net" modified="2023-12-29T00:05:17.629Z" agent="Mozilla/5.0 (Windows NT 10.0; Win64; x64) AppleWebKit/537.36 (KHTML, like Gecko) Chrome/120.0.0.0 Safari/537.36 Edg/120.0.0.0" version="22.1.15" etag="II1p9yeUW9HHoKMf3MND" type="github">
  <diagram name="Page-1" id="TT6Q_ddvfIhry6tYvhe8">
    <mxGraphModel>
      <root>
        <mxCell id="0" />
        <mxCell id="1" parent="0" />
      </root>
    </mxGraphModel>
  </diagram>
</mxfile>
